<svg xmlns="http://www.w3.org/2000/svg" viewBox="0 0 16 16" shape-rendering="crispEdges">
  <!-- Semisimple.jl favicon built from Miniwi glyphs S and s with Julia color blocks -->
  <rect width="16" height="16" fill="#ffffff"/>
  <g fill="#000000">
    <rect x="1" y="1" width="1" height="1"/>
    <rect x="2" y="1" width="1" height="1"/>
    <rect x="3" y="1" width="1" height="1"/>
    <rect x="4" y="1" width="1" height="1"/>
    <rect x="5" y="1" width="1" height="1"/>
    <rect x="6" y="1" width="1" height="1"/>
    <rect x="1" y="2" width="1" height="1"/>
    <rect x="2" y="2" width="1" height="1"/>
    <rect x="3" y="2" width="1" height="1"/>
    <rect x="4" y="2" width="1" height="1"/>
    <rect x="5" y="2" width="1" height="1"/>
    <rect x="6" y="2" width="1" height="1"/>
    <rect x="1" y="3" width="1" height="1"/>
    <rect x="2" y="3" width="1" height="1"/>
    <rect x="1" y="4" width="1" height="1"/>
    <rect x="2" y="4" width="1" height="1"/>
    <rect x="3" y="5" width="1" height="1"/>
    <rect x="4" y="5" width="1" height="1"/>
    <rect x="3" y="6" width="1" height="1"/>
    <rect x="4" y="6" width="1" height="1"/>
    <rect x="5" y="7" width="1" height="1"/>
    <rect x="6" y="7" width="1" height="1"/>
    <rect x="5" y="8" width="1" height="1"/>
    <rect x="6" y="8" width="1" height="1"/>
    <rect x="1" y="9" width="1" height="1"/>
    <rect x="2" y="9" width="1" height="1"/>
    <rect x="3" y="9" width="1" height="1"/>
    <rect x="4" y="9" width="1" height="1"/>
    <rect x="5" y="9" width="1" height="1"/>
    <rect x="6" y="9" width="1" height="1"/>
    <rect x="1" y="10" width="1" height="1"/>
    <rect x="2" y="10" width="1" height="1"/>
    <rect x="3" y="10" width="1" height="1"/>
    <rect x="4" y="10" width="1" height="1"/>
    <rect x="5" y="10" width="1" height="1"/>
    <rect x="6" y="10" width="1" height="1"/>
    <rect x="8" y="3" width="1" height="1"/>
    <rect x="9" y="3" width="1" height="1"/>
    <rect x="10" y="3" width="1" height="1"/>
    <rect x="11" y="3" width="1" height="1"/>
    <rect x="12" y="3" width="1" height="1"/>
    <rect x="13" y="3" width="1" height="1"/>
    <rect x="8" y="4" width="1" height="1"/>
    <rect x="9" y="4" width="1" height="1"/>
    <rect x="10" y="4" width="1" height="1"/>
    <rect x="11" y="4" width="1" height="1"/>
    <rect x="12" y="4" width="1" height="1"/>
    <rect x="13" y="4" width="1" height="1"/>
    <rect x="8" y="5" width="1" height="1"/>
    <rect x="9" y="5" width="1" height="1"/>
    <rect x="8" y="6" width="1" height="1"/>
    <rect x="9" y="6" width="1" height="1"/>
    <rect x="12" y="7" width="1" height="1"/>
    <rect x="13" y="7" width="1" height="1"/>
    <rect x="12" y="8" width="1" height="1"/>
    <rect x="13" y="8" width="1" height="1"/>
    <rect x="8" y="9" width="1" height="1"/>
    <rect x="9" y="9" width="1" height="1"/>
    <rect x="10" y="9" width="1" height="1"/>
    <rect x="11" y="9" width="1" height="1"/>
    <rect x="12" y="9" width="1" height="1"/>
    <rect x="13" y="9" width="1" height="1"/>
    <rect x="8" y="10" width="1" height="1"/>
    <rect x="9" y="10" width="1" height="1"/>
    <rect x="10" y="10" width="1" height="1"/>
    <rect x="11" y="10" width="1" height="1"/>
    <rect x="12" y="10" width="1" height="1"/>
    <rect x="13" y="10" width="1" height="1"/>
  </g>
  <rect x="0" y="12" width="5" height="4" fill="#CB3C33"/>
  <rect x="5" y="12" width="6" height="4" fill="#389826"/>
  <rect x="11" y="12" width="5" height="4" fill="#9558B2"/>
</svg>
