<?xml version="1.0" encoding="UTF-8"?>
<svg xmlns="http://www.w3.org/2000/svg" xmlns:xlink="http://www.w3.org/1999/xlink" width="310pt" height="190pt" viewBox="0 0 31 19">
   <clipPath id="a">
      <path transform="matrix(1 0 0 -1 -3 22)" d="M0 0h37.126v23.81H0z" />
   </clipPath>
   <g clip-path="url(#a)">
      <symbol id="b">
         <path d="M.696.144a.112.112 0 0 0-.092-.05C.563.094.501.128.435.161a.454.454 0 0 1-.177.062h-.01a.964.964 0 0 1 .181.092c.15.093.25.227.25.379 0 .15-.1.256-.238.256A.424.424 0 0 1 .029.528c0-.147.095-.251.229-.256L.254.27C.188.235 0 .179 0 .141 0 .131.006.124.017.124c.012 0 .028.012.047.02A.168.168 0 0 0 .12.153c.055 0 .12-.034.187-.07C.383.043.462 0 .537 0c.081 0 .169.078.191.133C.738.156.72.177.696.144M.302.308C.195.309.167.386.167.467c0 .179.128.442.271.442C.51.909.54.85.54.754A.52.52 0 0 0 .316.308H.302z" />
      </symbol>
      <use xlink:href="#b" transform="matrix(9.96264 0 0 -9.96264 .61 14.392)" fill="#a0262c" />
      <symbol id="c">
         <path d="M.307.074h.002L.314.01c0-.002.003-.003.009-.003a1.033 1.033 0 0 0 .131 0L.456.01a1.133 1.133 0 0 0-.017.192v.057c0 .075 0 .127.009.18L.447.442S.405.439.37.439C.336.439.302.442.302.442L.3.439C.307.383.307.335.307.259v-.08C.307.121.239.077.195.077c-.03 0-.059.01-.057.092l.002.09c.001.075.003.128.008.18L.147.442S.107.439.072.439a.976.976 0 0 0-.07.003L0 .439C.006.382.009.331.008.259L.006.136C.005.067.04 0 .139 0 .18 0 .251.014.307.074z" />
      </symbol>
      <symbol id="d">
         <path d="M.005.61A.07.07 0 0 1 .076.541.07.07 0 0 1 .147.61a.07.07 0 0 1-.071.069A.07.07 0 0 1 .005.61M.01.238V.183C.01.108.008.057 0 .003L.002 0A.686.686 0 0 0 .15 0l.002.003C.144.06.142.107.142.183v.066c0 .075.003.118.01.178 0 .007-.003.01-.009.01a.52.52 0 0 0-.14-.002L0 .431C.008.388.01.313.01.238z" />
      </symbol>
      <symbol id="e">
         <path d="M.194 0a.52.52 0 0 0 .097 0C.353.135.434.291.51.435.501.432.463.432.453.432c-.01 0-.034 0-.043.003a2.3 2.3 0 0 0-.13-.31L.274.126C.234.22.19.34.161.435.148.432.101.432.087.432c-.016 0-.071 0-.087.003A5.69 5.69 0 0 0 .194 0z" />
      </symbol>
      <symbol id="f">
         <path d="M.138.265a.2.2 0 0 0 .03.104c.013.017.032.03.061.03.04 0 .065-.047.065-.134H.138M.413.117A.2.2 0 0 0 .276.076C.227.076.191.089.167.115.145.139.134.174.134.22h.099c.1 0 .186-.002.186-.002l.006.006C.425.349.39.449.236.449a.259.259 0 0 1-.155-.05A.23.23 0 0 1 0 .216C0 .157.021.094.063.052.097.016.156 0 .231 0c.072 0 .143.023.198.086 0 .013-.006.031-.016.031z" />
      </symbol>
      <symbol id="g">
         <path d="M.147.352.142.355.14.428C.138.434.137.438.131.438A.778.778 0 0 0 .002.435L0 .432C.007.389.011.312.011.238V.183c0-.075-.002-.126-.01-.18L.002 0a.812.812 0 0 0 .149 0l.002.003C.145.06.143.107.143.183v.073c0 .077.068.089.084.089.019 0 .04-.005.058-.019l.018.002.02.103-.004.004a.175.175 0 0 1-.051.007C.221.442.173.391.147.352z" />
      </symbol>
      <use xlink:href="#c" transform="matrix(9.46448 0 0 -9.46448 8.776 11.638)" />
      <use xlink:href="#d" transform="matrix(9.46448 0 0 -9.46448 14.512 11.571)" />
      <use xlink:href="#e" transform="matrix(9.46448 0 0 -9.46448 16.897 11.571)" />
      <use xlink:href="#f" transform="matrix(9.46448 0 0 -9.46448 22.168 11.638)" />
      <use xlink:href="#g" transform="matrix(9.46448 0 0 -9.46448 27.383 11.571)" />
      <symbol id="h">
         <path d="M.214.439V.203c0-.075-.002-.146-.01-.2L.205 0s.046.003.081.003C.32.003.366 0 .366 0l.002.003C.36.06.358.128.358.203v.236c0 .017.001.107.008.131A.75.75 0 0 0 .57.548l.002.004a.76.76 0 0 0 0 .096L.57.651A.534.534 0 0 0 .51.648H.062a.534.534 0 0 0-.06.003L0 .648a.76.76 0 0 0 0-.096L.002.548S.072.57.206.57A.875.875 0 0 0 .214.439z" />
      </symbol>
      <symbol id="i">
         <path d="M0 .215C0 .082.093 0 .242 0c.153 0 .242.085.242.224 0 .126-.071.225-.24.225C.101.449 0 .37 0 .215m.237.184C.322.399.342.336.342.197.342.082.301.05.256.05.152.05.142.161.142.238c0 .087.009.161.095.161z" />
      </symbol>
      <symbol id="j">
         <path d="M.012.203A1.43 1.43 0 0 0 0 .003L.001 0s.042.003.077.003C.112.003.154 0 .154 0l.002.003a1.318 1.318 0 0 0-.012.2v.3c0 .075.004.126.012.188 0 .007-.005.01-.011.01A.72.72 0 0 0 .002.668L0 .665C.007.622.012.553.012.477V.203z" />
      </symbol>
      <symbol id="k">
         <path d="M.016.123 0 .027A.5.5 0 0 1 .156 0c.13 0 .185.063.185.132C.341.222.27.25.199.288.166.305.139.323.139.355c0 .028.01.049.049.049.049 0 .078-.047.091-.075L.306.33l.019.09-.002.003A.327.327 0 0 1 .19.449C.1.449.021.405.021.328c0-.07.049-.106.106-.137C.2.151.222.133.222.093.222.046.191.044.153.044c-.036 0-.077.022-.107.08L.016.123z" />
      </symbol>
      <use xlink:href="#h" transform="matrix(9.46448 0 0 -9.46448 8.224 18.613)" fill="#f17338" />
      <use xlink:href="#i" transform="matrix(9.46448 0 0 -9.46448 13.571 18.68)" fill="#f17338" />
      <use xlink:href="#i" transform="matrix(9.46448 0 0 -9.46448 18.985 18.68)" fill="#f17338" />
      <use xlink:href="#j" transform="matrix(9.46448 0 0 -9.46448 24.654 18.613)" fill="#f17338" />
      <use xlink:href="#k" transform="matrix(9.46448 0 0 -9.46448 27.19 18.68)" fill="#f17338" />
      <path stroke-width=".797" stroke-miterlimit="10" fill="none" stroke="#000" d="M13.207 5.408c-9.382-.82-6.297-6.82-.014-2.42" />
      <path d="m14.187 3.684-.87-1.624-.026.997-.928.365z" />
      <path stroke-width=".47799043999999996" stroke-miterlimit="10" fill="none" stroke="#000" d="m14.187 3.684-.87-1.624-.026.997-.928.365z" />
      <path stroke-width=".797" stroke-miterlimit="10" fill="none" stroke="#000" d="M17.204 5.408c9.382-.82 6.298-6.82.014-2.42" />
      <path d="m16.225 3.684 1.823-.262-.927-.365-.026-.997z" />
      <path stroke-width=".47799043999999996" stroke-miterlimit="10" fill="none" stroke="#000" d="m16.225 3.684 1.823-.262-.927-.365-.026-.997z" />
   </g>
</svg>
